<?xml version="1.0" encoding="iso-8859-1"?>
<!-- Uploaded to: SVG Repo, www.svgrepo.com, Generator: SVG Repo Mixer Tools -->
<svg fill="#000000" height="800px" width="800px" version="1.1" id="Layer_1" xmlns="http://www.w3.org/2000/svg" xmlns:xlink="http://www.w3.org/1999/xlink" 
	 viewBox="0 0 511.999 511.999" xml:space="preserve">
<g>
	<g>
		<path d="M476.098,312.993c16.737-103.048-39.549-201.607-132.718-241.264c-13.716-35.021-47.559-59.71-87.38-59.71
			c-39.751,0-73.647,24.635-87.381,59.711C75.405,111.405,19.172,209.996,35.902,312.994C13.52,330.628,0,357.955,0,386.767
			c0,72.402,78.903,117.239,140.807,81.177c69.508,42.014,158.56,43.413,230.384-0.007c61.777,35.989,140.809-8.643,140.809-81.17
			C512,357.951,498.476,330.62,476.098,312.993z M256,44.548c32.982,0,61.264,26.783,61.264,61.265
			c0,33.782-27.484,61.265-61.264,61.265c-33.78,0-61.264-27.484-61.264-61.265C194.736,71.519,222.823,44.548,256,44.548z
			 M93.795,448.032c-33.781-0.001-61.265-27.484-61.265-61.265c0-34.688,28.155-61.265,61.265-61.265
			c33.78,0,61.264,27.484,61.264,61.265C155.059,421.195,127.103,448.032,93.795,448.032z M344.971,445.42
			c-55.443,29.352-122.418,29.395-177.943,0.005c57.025-70.757-11.94-175.232-100.461-148.411
			c-8.064-77.095,30.798-149.311,95.787-185.979c2.72,49.298,43.68,88.572,93.647,88.572s90.927-39.274,93.647-88.572
			c65.619,37.023,103.781,109.568,95.787,185.979C356.779,270.148,288.094,374.806,344.971,445.42z M418.205,448.031
			c-33.259,0-61.264-26.825-61.264-61.265c0-33.781,27.484-61.265,61.264-61.265c33.031,0,61.265,26.494,61.265,61.265
			C479.47,420.548,451.986,448.031,418.205,448.031z"/>
	</g>
</g>
</svg>